<svg xmlns="http://www.w3.org/2000/svg" height="48" viewBox="0 96 960 960" width="48"><path d="M193 563q-11 6-23 2t-17-15L53 350q-5-11-1.5-23.5T66 309q11-5 23.5-1.5T107 322l100 200q5 11 1 23.5T193 563Zm140 280q-11 6-22.5 1.5T293 829l-80-160q-5-11-1-22.5t15-17.5q11-5 22.5-1.5T267 642l80 160q5 11 1 23t-15 18Zm82-200q-11 6-23 2t-17-15L235 350q-5-11-1.5-23.5T248 309q11-5 23-1.5t18 14.5l140 280q5 11 1 23.5T415 643Zm87-200q-11 6-23 2t-18-15l-39-81q-5-11-1.5-22.5T435 309q11-5 22.5-1.5T475 322l40 80q5 11 1.5 23T502 443Zm23 399q-11 6-22.5 2T485 829l-40-80q-5-11-1.5-22.5T458 709q11-5 23-1t18 15l40 79q5 11 1 22.5T525 842Zm187 0q-11 6-23 2t-18-15L531 549q-5-11-1-22.5t15-17.5q11-5 22.5-1.5T585 522l140 280q5 11 1.5 22.5T712 842Zm61-239q-11 6-22.5 1.5T733 589L613 349q-5-11-1.5-22.5T626 309q11-5 23-1.5t18 14.5l120 240q5 11 1 23.5T773 603Zm120 240q-11 6-22.5 1.5T853 829l-60-120q-5-11-1.5-22.5T806 669q11-5 23-1.5t18 14.5l60 120q5 11 1 23.5T893 843Z"/></svg>